<svg xmlns="http://www.w3.org/2000/svg" viewBox="0 0 567.26 474.9"><defs><style>.cls-1{opacity:0.2;}.cls-2{fill:#fff;}</style></defs><g id="レイヤー_2" data-name="レイヤー 2"><g id="contents"><g class="cls-1"><path class="cls-2" d="M144.68,93.66c28.85,19.14,60.77,28.51,89.89,26.4.93-.07,1.84-.17,2.76-.26-1.71-8.75-3.51-17.49-5.23-25.79-23.23,1.54-49.11-6.3-73-22.13S118,35.25,110.37,13.26c-8.31,1.63-17.06,3.38-25.79,5.2.27.88.54,1.76.84,2.64C94.79,48.76,115.83,74.52,144.68,93.66Z"/><path class="cls-2" d="M230.21,84.94c-1.85-8.92-3.53-17-4.79-23.68C210.26,60.11,193.76,54,178,43.5S150.1,20.19,143.14,6.68c-6.62,1.42-14.74,3-23.68,4.79,7.18,19.67,23,38.36,44.73,52.78S209.3,86,230.21,84.94Z"/><path class="cls-2" d="M223.78,51.91c-.12-.75-.22-1.48-.31-2.15C221.39,37.34,217.18,15,203.6,4.85,189-3.72,166.75,1.09,154.5,4c-.65.17-1.36.36-2.1.54,6.37,11.37,16.93,22.24,30.62,31.32S210.83,50.46,223.78,51.91Z"/><path class="cls-2" d="M9.26,44.35c-20.51,22.56-4.54,67.3,24.28,98.29a355.37,355.37,0,0,0,51.93,40.28,355.89,355.89,0,0,0,57.29,32.18c39.76,14.5,87.18,11.83,100-15.84-45.36,3.92-96.47-8.84-142.16-39.15S23.28,87.67,9.26,44.35Z"/><path class="cls-2" d="M245.58,189.87a43.86,43.86,0,0,0,.46-8.93,166.89,166.89,0,0,0-1.36-17.22c-2.26.27-4.56.49-6.88.66-38.89,2.83-80.68-9.13-117.69-33.68S55.83,72.29,43.32,35.36c-.75-2.2-1.43-4.41-2.06-6.6A168.87,168.87,0,0,0,24.87,34.2a43.61,43.61,0,0,0-8,3.91c12.79,42.55,43.68,84.41,88.84,114.37S201.39,194.62,245.58,189.87Z"/><path class="cls-2" d="M125.17,123.07c35.33,23.44,75.09,34.87,112,32.18,2.14-.15,4.25-.36,6.33-.61-1.2-8.11-2.72-16.87-4.4-25.81-1.26.13-2.53.26-3.83.36-31.12,2.26-65.08-7.64-95.61-27.9S86.76,53.6,76.75,24c-.42-1.23-.79-2.45-1.16-3.66-8.89,1.93-17.56,3.93-25.49,6,.58,2,1.21,4,1.89,6.07C63.86,67.44,89.84,99.63,125.17,123.07Z"/><path class="cls-2" d="M332.15,322.47c44.81-10.6,82.94-33.07,107.36-63.26.78-1,1.52-1.94,2.26-2.91-10-6.3-20.17-12.5-29.79-18.37-19.63,23.94-50.78,41.94-87.84,50.71s-73,6.63-101.25-6c-6,9.55-12.23,19.63-18.4,29.77,1.1.53,2.19,1.07,3.33,1.59C243.18,330.07,287.33,333.07,332.15,322.47Z"/><path class="cls-2" d="M321.34,276.79c33.79-8,62.11-24,80.12-45.28-10.34-6.31-19.74-12.06-27.34-16.88-14.91,13.66-35.87,24.11-60.41,29.91s-48,5.86-67.4.32c-4.64,7.72-10.47,17.07-16.89,27.34C255,283.12,287.55,284.78,321.34,276.79Z"/><path class="cls-2" d="M310.91,232.69c21.27-5,39.44-13.72,52.64-25l-2.37-1.66c-13.95-9.28-39.47-25.51-61.67-21.56-21.62,6.41-37.16,32.36-45.48,46.91-.41.79-.88,1.65-1.37,2.54C269.5,238.09,289.64,237.72,310.91,232.69Z"/><path class="cls-2" d="M353.76,413.83c70.15-16.59,128-54.61,163.53-101.82a58.54,58.54,0,0,0-8.25-8.58,226.56,226.56,0,0,0-18-14.34q-2.68,3.68-5.61,7.3c-32.62,40.32-82.24,70-139.72,83.61s-115.16,9.28-162.38-12.15q-4.23-1.92-8.28-4a223.62,223.62,0,0,0-9.63,20.86,58.36,58.36,0,0,0-3.53,11.36C214.89,422.35,283.61,430.43,353.76,413.83Z"/><path class="cls-2" d="M343,368.15c54.88-13,102.13-41.19,133.06-79.42q2.69-3.33,5.16-6.7c-9-6.21-18.86-12.7-29.06-19.2-1,1.35-2.05,2.7-3.13,4-26.11,32.27-66.61,56.23-114,67.45s-94.36,7.94-132.17-9.22c-1.57-.71-3.09-1.45-4.6-2.2C192,333.28,186,343.52,180.8,353.09c2.48,1.26,5,2.49,7.61,3.67C233.19,377.09,288.08,381.13,343,368.15Z"/><path class="cls-2" d="M567.1,369.41c-1.32-4-10.31-5-23.1-3.16,12.06-9,19-17.88,16.47-22.36-2.85-5.15-17.16-2.88-34.09,4.8a46.81,46.81,0,0,0-2.53-25.41c-37.45,47.6-96.31,85.61-167.29,102.4s-140.63,9.18-195.43-16.59c1.2,15,10,27.91,23.36,38.22-15.27,2.92-27.32,6.27-26.37,11.39,1.54,8.27,36,14.64,61.5,13.35,7.56-.38,14-.83,19.6-1.35a194.11,194.11,0,0,0,39.41,4.2A474.12,474.12,0,0,0,365,461.12a473.77,473.77,0,0,0,83.34-26.36,193.38,193.38,0,0,0,36.78-24.22c9.34-2.8,21.51-7,36.95-12.75C548.77,387.79,569.32,376.11,567.1,369.41Zm-19.46-23.77c6.69-1.24,9.11-.19,9.4.17.35,1.05-1.76,6-10.81,13.65l-5.3-12.15A64.27,64.27,0,0,1,547.64,345.64Zm7,33-4-9.19c8.2-.59,11.78.51,12.69,1.18C563,371.67,561,374.51,554.61,378.68Z"/></g></g></g></svg>