<svg xmlns="http://www.w3.org/2000/svg" viewBox="0 0 562.14 361.19"><defs><style>.cls-1{opacity:0.2;}.cls-2{fill:#fff;}</style></defs><g id="レイヤー_2" data-name="レイヤー 2"><g id="contents"><g class="cls-1"><path class="cls-2" d="M277.65,49.09c-.55-.9-1.07-1.76-1.54-2.55C266.88,32,249.69,6,227.14.34c-23-3-48.55,14.85-62.49,25-.72.57-1.52,1.18-2.36,1.81,14.1,11,33.22,19.09,55.34,23.29S260.51,54.13,277.65,49.09Z"/><path class="cls-2" d="M282.6,95a166.49,166.49,0,0,1,13.67-17.84c-4.29-6.26-8.22-12-11.58-17.1-19.76,6.59-43.87,7.62-69.4,2.78s-47.59-14.64-63.56-28c-7.61,5.32-17,11.67-27.37,18.64,19.52,21,49.42,36.25,84.56,42.92C235.28,101.35,260.65,100.8,282.6,95Z"/><path class="cls-2" d="M247.67,148.07l.15-.21h0s15.43-22.66,20.55-30.45l4.22-6.43.69-1.14c-20.63,3.6-43.35,3.27-66.7-1.16-38.55-7.32-71.44-24.41-92.76-48.16C104.19,67,94.06,73.86,84,80.81c.81,1,1.61,1.93,2.46,2.89,26.53,30,66.81,51.32,113.43,60.17A235.08,235.08,0,0,0,247.67,148.07Z"/><path class="cls-2" d="M216.09,195l.31-.46,0,0s17.61-26.36,22.78-34a250.1,250.1,0,0,1-41.59-4.39C148.23,146.84,105.44,124,77.07,92q-1.75-2-3.4-4c-10.21,7.16-20.1,14.3-29,21.11q2.7,3.36,5.62,6.66c33.59,37.93,83.53,64.79,140.62,75.63Q203.54,193.8,216.09,195Z"/><path class="cls-2" d="M188.41,240.09c.46-.83.92-1.66,1.41-2.52l1.13-2-.09,0,2-3.29,2-3.55.09,0,1.33-2.23c3.6-6,7.65-12.53,12.22-19.68-6.63-.81-13.28-1.83-19.94-3.1-59.8-11.35-112.25-39.63-147.68-79.63q-3.16-3.6-6.11-7.25a234.65,234.65,0,0,0-17.82,15.59,60.42,60.42,0,0,0-8.1,9.21c38.79,47,100.05,83.42,173,97.28Q185.15,239.54,188.41,240.09Z"/><path class="cls-2" d="M174,272.66a71.09,71.09,0,0,1,4.67-13.18q1.58-3.63,3.63-7.75c-.91-.16-1.82-.31-2.74-.49-73.83-14-136.18-50.42-176.92-97.7C-11.31,193,32.64,241,85.52,264.82a488.8,488.8,0,0,0,86.7,23.24"/><path class="cls-2" d="M362.12,206.44c46.57-9.07,86.75-30.64,113.13-60.73.85-1,1.65-1.93,2.45-2.9-10.09-6.9-20.25-13.7-29.91-20.14-21.2,23.85-54,41.1-92.52,48.61s-75.41,3.83-104-10.31c-6.54,9.6-13.4,19.72-20.16,29.9,1.11.59,2.21,1.19,3.36,1.77C270.21,210.62,315.54,215.52,362.12,206.44Z"/><path class="cls-2" d="M437.22,115.63c-10.39-6.92-19.83-13.22-27.46-18.5-15.91,13.45-37.92,23.35-63.43,28.32s-49.62,4.06-69.41-2.43c-5.09,7.75-11.47,17.14-18.5,27.45,25.93,12.3,59.33,15.34,94.45,8.49S417.8,136.76,437.22,115.63Z"/><path class="cls-2" d="M399.16,89.58q-1.28-.94-2.37-1.8c-14-10.12-39.6-27.89-62.62-24.73-22.52,5.71-39.58,31.8-48.74,46.43-.46.8-1,1.66-1.52,2.56,17.16,5,37.92,5.41,60,1.1S385.11,100.62,399.16,89.58Z"/><path class="cls-2" d="M182.48,288.61c1.7,41.76,60.33,70.06,118.28,72.58a487.81,487.81,0,0,0,89.44-10.65,487.35,487.35,0,0,0,86.89-23.72c52.76-24.09,96.48-72.34,82.37-111.68C519,262.62,456.79,299.34,383,313.71S237.85,317.4,182.48,288.61Z"/><path class="cls-2" d="M553.18,203.27A60.16,60.16,0,0,0,545,194.1a233.27,233.27,0,0,0-17.89-15.5q-2.92,3.68-6.08,7.28c-35.24,40.17-87.54,68.71-147.29,80.36s-118.94,4.83-166.68-19.18q-4.29-2.15-8.37-4.46A234.13,234.13,0,0,0,188,263.69a60.35,60.35,0,0,0-4.1,11.56c53.44,29.22,123.86,40.36,196.77,26.15S514.62,250.42,553.18,203.27Z"/><path class="cls-2" d="M371.37,253.92c57-11.11,106.84-38.22,140.25-76.32q2.91-3.32,5.59-6.68c-9-6.76-18.89-13.86-29.13-21-1.1,1.35-2.22,2.7-3.39,4-28.21,32.16-70.88,55.16-120.17,64.77s-97.48,4.31-135.7-14.91c-1.59-.8-3.13-1.63-4.66-2.46-6.81,10.43-13.35,20.73-19.12,30.37q3.75,2.12,7.68,4.09C258,258.62,314.34,265,371.37,253.92Z"/></g></g></g></svg>