<!--?xml version="1.0" encoding="utf-8"?-->
<!-- Generator: Adobe Illustrator 18.1.1, SVG Export Plug-In . SVG Version: 6.00 Build 0)  -->

<svg version="1.1" id="_x31_0" xmlns="http://www.w3.org/2000/svg" xmlns:xlink="http://www.w3.org/1999/xlink" x="0px" y="0px" viewBox="0 0 512 512" style="width: 256px; height: 256px; opacity: 1;" xml:space="preserve">
<style type="text/css">
	.st0{fill:#374149;}
</style>
<g>
	<path class="st0" d="M491.35,224.812l-0.045,0.04c-0.008-0.032-0.008-0.064-0.012-0.101l-77.314,70.694
		c-17.797,75.822-86.008,132.53-167.295,132.53c-94.864,0-172.013-77.152-172.013-171.935c0-12.332,1.241-24.502,3.889-36.256
		c0.743-3.808,1.657-7.615,2.813-11.342v-0.081c2.652-9.273,6.128-18.214,10.347-26.984c1.492-3.23,3.23-6.54,5.218-10.016
		l1.738-2.983c2.482-4.139,5.129-8.197,7.946-12.166l1.487-2.07c2.154-2.982,4.47-5.877,6.79-8.528
		c32.695-39.154,80.79-61.587,131.783-61.587c38.41,0,74.913,12.502,104.634,35.598l49.825-45.593l5.662-5.174l-0.008-0.005
		l0.065-0.056C362.574,30.553,305.869,9.361,246.683,9.361c-78.062,0-152.312,37.662-198.669,100.66
		c-2.402,3.226-4.718,6.54-6.706,9.685C14.325,160.101,0,207.206,0,256.04c0,135.922,110.676,246.598,246.683,246.598
		S493.282,391.962,493.282,256.04c0-8.29-0.534-16.515-1.358-24.701C491.721,229.165,491.596,226.963,491.35,224.812z" style="fill: rgb(255, 255, 255);"></path>
	<path class="st0" d="M242.528,216.187c-12.437-13.314-30.015-20.946-48.241-20.946c-16.778,0-32.776,6.314-45.043,17.773
		l-4.87,4.547l104.266,111.602c7.062,7.562,17.053,11.895,27.401,11.895h0.004c9.385,0,18.374-3.492,25.302-9.834L490.59,158.04
		c26.846-24.575,28.698-66.405,4.13-93.251l-4.498-4.915L277.968,254.116L242.528,216.187z" style="fill: rgb(255, 255, 255);"></path>
</g>
</svg>
