<svg xmlns="http://www.w3.org/2000/svg" viewBox="0 0 570 295.92"><defs><style>.cls-1{opacity:0.2;}.cls-2{fill:#00a0e9;}</style></defs><g id="レイヤー_2" data-name="レイヤー 2"><g id="contents"><g class="cls-1"><path class="cls-2" d="M162.54,140.94c-14.59,0-41.93-16.87-86.66-16.87C20.85,124.07,0,139,0,157.41A22.24,22.24,0,0,0,5.35,172a49.67,49.67,0,0,0,16.58-3.31c4.2-1.69.7,7.55-7.82,10.57,11.84,7.05,31.7,11.5,61.77,11.5,29.14,0,76.73-17.67,86.48-17.67,10.14,0,16.72,7.51,28.37,11,21.41,6.37,9.29-17.18,14.85-38.54C212.05,120.62,176.4,140.94,162.54,140.94ZM28,154.5a5.82,5.82,0,1,1,5.82-5.81A5.81,5.81,0,0,1,28,154.5Z"/><path class="cls-2" d="M263.61,18.91C249.83,21.34,221.2,10,179,17.45c-52,9.19-69.15,26.77-66.07,44.15a21.31,21.31,0,0,0,7.48,12.87,47.39,47.39,0,0,0,15.1-5.9c3.69-2.29,1.92,7-5.61,11.29,12.35,4.68,31.85,5.57,60.23.55,27.51-4.87,69.49-29.5,78.69-31.13,9.57-1.69,17,4.3,28.62,5.62C318.7,57.34,303.32,37.13,305,16,307-8.54,276.69,16.59,263.61,18.91ZM138.83,54.18a5.58,5.58,0,1,1,4.52-6.46A5.57,5.57,0,0,1,138.83,54.18Z"/><path class="cls-2" d="M376.9,129.37c-10.94,2.28-34.08-6.11-67.64.87-41.28,8.58-54.59,23-51.72,36.85a17.07,17.07,0,0,0,6.29,10.1,38,38,0,0,0,11.92-5.07c2.89-1.92,1.7,5.55-4.21,9.15,10,3.44,25.57,3.68,48.13-1,21.86-4.55,54.8-25.23,62.11-26.75,7.61-1.58,13.72,3,23,3.81,17.05,1.44,4.29-14.34,5.12-31.23C410.87,106.41,387.3,127.21,376.9,129.37Zm-98.83,31.17a4.45,4.45,0,1,1,3.45-5.27A4.45,4.45,0,0,1,278.07,160.54Z"/><path class="cls-2" d="M513.42,12c-10.91,2.41-34.16-5.69-67.62,1.7-41.18,9.1-54.31,23.71-51.27,37.49a17.09,17.09,0,0,0,6.41,10A37.7,37.7,0,0,0,412.8,56c2.87-1.95,1.78,5.53-4.1,9.2,10,3.32,25.62,3.37,48.12-1.6,21.8-4.81,54.49-25.9,61.78-27.51,7.58-1.68,13.75,2.85,23,3.52,17.07,1.23,4.11-14.39,4.74-31.29C547.1-11.36,523.79,9.73,513.42,12ZM415,44.41a4.45,4.45,0,1,1,3.39-5.31A4.46,4.46,0,0,1,415,44.41Z"/><path class="cls-2" d="M258.55,241.92c-12.26,1.72-37.2-9.25-74.76-4-46.22,6.46-62,21.44-59.82,36.91a18.85,18.85,0,0,0,6.2,11.61,42,42,0,0,0,13.54-4.73c3.33-1.9,1.48,6.26-5.32,9.8,10.76,4.53,28,5.94,53.23,2.41,24.47-3.42,62.36-23.85,70.55-25,8.51-1.19,14.93,4.34,25.12,5.89,18.73,2.83,5.78-15.52,7.94-34.12C297.74,219.05,270.19,240.3,258.55,241.92ZM147.12,269.11a4.93,4.93,0,1,1,4.2-5.57A4.93,4.93,0,0,1,147.12,269.11Z"/><path class="cls-2" d="M528.15,190.49c-12.81,2.19-39.34-8.52-78.61-1.79-48.31,8.27-64.37,24.5-61.61,40.67a19.83,19.83,0,0,0,6.89,12,44,44,0,0,0,14.06-5.4c3.43-2.11,1.75,6.52-5.27,10.46,11.44,4.41,29.55,5.34,55.95.82,25.58-4.38,64.7-27.05,73.26-28.51,8.9-1.52,15.81,4.08,26.56,5.37,19.75,2.38,5.57-16.48,7.24-36.06C568.56,165.21,540.31,188.4,528.15,190.49Zm-116.1,32.12a5.18,5.18,0,1,1,4.23-6A5.18,5.18,0,0,1,412.05,222.61Z"/></g></g></g></svg>