<svg xmlns="http://www.w3.org/2000/svg" viewBox="0 0 564.37 527.55"><defs><style>.cls-1{fill:#00a0e9;}</style></defs><g id="レイヤー_2" data-name="レイヤー 2"><g id="contents"><path class="cls-1" d="M400.52,484.83a7.58,7.58,0,0,0,2.29,1.57l40,17.63a7.54,7.54,0,1,0,6.08-13.8l-40-17.63a7.54,7.54,0,0,0-8.37,12.23Z"/><path class="cls-1" d="M435.58,473.07l-2.13,6.24-9.23-4.07,2.22-6.5A28.29,28.29,0,0,0,435.58,473.07Z"/><path class="cls-1" d="M401.16,335.51,563.27,497.62a3.77,3.77,0,0,1,0,5.33l-24.6,24.6-50-50,10.51-19.45L390,346.63Z"/><path class="cls-1" d="M314.11,248.47l73.72,73.72-11,11c-23.66-24.18-48.31-49.35-72.94-74.51Z"/><path class="cls-1" d="M230.62,165l70.17,70.17-10.05,10-69.42-70.91Z"/><path class="cls-1" d="M450.52,417.81a28.82,28.82,0,0,0-17.35.79l-6.76-25.18Z"/><path class="cls-1" d="M470.84,438.37l19,19.22-19.29-4A28.85,28.85,0,0,0,470.84,438.37Z"/><path class="cls-1" d="M460.69,427.87a24.65,24.65,0,0,0-37.34,2.52c-26-14.86-40.59-60-41.59-82.59L397.61,332l-6.22-6.22-16,16c-19.3.56-40-8.17-55.7-23.71l-.43-.42c-15.92-15.92-24.73-36.45-24.52-56.87l15.82-15.82-6.22-6.22-15.59,15.59a72.43,72.43,0,0,1-54-21.2,75.29,75.29,0,0,1-22.33-57l14.66-14.66-6.22-6.22L205.66,170.4a5.25,5.25,0,0,0-.43.53c-43.4-3.39-70.16-30.69-72-73.56L148.1,82.45l-6.22-6.22L126.31,91.8C85.91,86,70.54,70.55,65.08,30.06l7.6-7.6L130,81l8.33-8.33L66.75,1.1a3.77,3.77,0,0,0-5.33,0L59.18,3.34a3.77,3.77,0,0,0,0,5.3l7.38,7.53-6.27,6.27a3.77,3.77,0,0,0-6.14,2.65c-1.91,26.44-7,39-12.41,52.29s-10.95,27-12.95,54.58,1.54,42,5,55.89,6.67,27.09,4.76,53.54-7,39-12.41,52.29c-5.21,12.83-10.6,26.08-12.75,52A17.78,17.78,0,0,0,.06,364.34a17.58,17.58,0,0,0,5.12,11c.36.36.74.71,1.13,1a17.57,17.57,0,0,0,11.46,4.17l.46,6.73L39,367.55l-22.23-1.62.49,7.09a10.2,10.2,0,0,1-9.68-9.32,10.23,10.23,0,0,1,9.31-11.05,3.74,3.74,0,0,0,2.67-1.48,3.75,3.75,0,0,0,1.09-2.36c1.91-26.44,7-39,12.41-52.3s11-26.95,13-54.58-1.54-42-5-55.88-6.67-27.1-4.76-53.54,7-39,12.41-52.29C52.81,70.08,57,59.67,59.69,43c3.41,15.79,9,27.63,17.75,36.37,10.79,10.79,26.34,16.87,48.29,20,1.32,22.51,9.23,41.61,23,55.39l.1.11c13.8,13.73,33.11,21.87,56,23.63a83,83,0,0,0,24.26,59.61l.39.38a80.09,80.09,0,0,0,57.74,23.45c.13,22,9.71,44,26.74,61l.46.46c17.11,16.88,38.75,26.18,59.93,25.92,1.33,18.7,11.49,56.65,32.91,78.06A58.07,58.07,0,0,0,419.76,437a24.85,24.85,0,1,0,40.93-9.17Zm-11.37,23.8a8.79,8.79,0,1,1,0-12.43A8.79,8.79,0,0,1,449.32,451.67Z"/><path class="cls-1" d="M208.14,160.82l9.16-9.16L151.65,86l-8.47,8.47Z"/></g></g></svg>