<svg xmlns="http://www.w3.org/2000/svg" viewBox="0 0 570 543.21"><defs><style>.cls-1{opacity:0.2;}.cls-2{fill:#fff;}</style></defs><g id="レイヤー_2" data-name="レイヤー 2"><g id="contents"><g class="cls-1"><path class="cls-2" d="M290.5,87c10.31,6.35,39.68,24.25,49.35,28.05,16.78,6.61,37.85.95,15-24.2A209.68,209.68,0,0,1,338.1,69.93,195.12,195.12,0,0,0,356.37,43.8c17.32-29.21-5-34.19-18.55-25.73-8.38,5.25-35.9,20.74-47.62,27.3-13.55-6-31.38-12.07-51.71-17.12,5-7.88,11.55-16.75,6.24-23.48-9.92-12.56-53.44,2.59-77,12.08-9-.67-18-1-27-1C53,15.82,0,38.2,0,65.81s53,50,140.68,50C198.79,115.8,257.52,101.69,290.5,87ZM42.44,71.27A10.69,10.69,0,1,1,53.12,60.58,10.69,10.69,0,0,1,42.44,71.27Z"/><path class="cls-2" d="M569.94,206.76c-2-27.54-56.55-46-144-39.54-9,.66-18,1.69-26.86,3-24.24-7.73-68.75-19.66-77.73-6.39-4.79,7.09,2.37,15.46,7.95,22.95-19.91,6.52-37.24,13.87-50.32,20.87-12.16-5.69-40.74-19.12-49.49-23.73-14.1-7.45-36-.84-16.61,27a194.55,194.55,0,0,0,20.13,24.72,209.29,209.29,0,0,1-15.2,22.06c-20.91,26.75.52,30.85,16.77,23,9.36-4.5,37.34-24.5,47.15-31.59,34,12.27,93.59,22,151.54,17.77C520.72,260.51,572,234.29,569.94,206.76ZM528,215.31a10.68,10.68,0,1,1,9.88-11.44A10.68,10.68,0,0,1,528,215.31Z"/><path class="cls-2" d="M302.63,422.08c13,6.8,30.53,4.06,14.27-18.27a167.73,167.73,0,0,1-11.75-18.34,159.13,159.13,0,0,0,17-19.54c16.55-22.11-1.1-28.08-12.76-22.41-7.24,3.51-30.84,13.63-40.88,17.93a260.88,260.88,0,0,0-40.32-18.35c4.74-5.94,10.79-12.54,7.08-18.44-6.93-11-43.43-2.56-63.35,3.06-7.18-1.32-14.45-2.4-21.75-3.19-70.87-7.63-115.7,5.86-118.1,28.18s38.53,45,109.4,52.67c47,5.06,95.71-1.24,123.66-10.28C273,401.13,295.15,418.16,302.63,422.08Zm-227.11-69a8.69,8.69,0,1,1-7.71-9.58A8.69,8.69,0,0,1,75.52,353.11Z"/><path class="cls-2" d="M457.08,496.34c13.05-17.44-.87-22.15-10.07-17.68-5.7,2.77-24.32,10.76-32.24,14.14A207.19,207.19,0,0,0,383,478.33c3.74-4.68,8.52-9.89,5.59-14.54-5.46-8.7-34.25-2-50,2.41-5.66-1-11.4-1.89-17.15-2.51-55.9-6-91.26,4.62-93.15,22.22s30.39,35.53,86.29,41.55c37.06,4,75.49-1,97.54-8.11,6.13,4.75,23.64,18.19,29.54,21.28,10.25,5.36,24.08,3.2,11.25-14.41a133.48,133.48,0,0,1-9.26-14.47A126.08,126.08,0,0,0,457.08,496.34ZM262.52,486.22a6.85,6.85,0,1,1-6.08-7.54A6.87,6.87,0,0,1,262.52,486.22Z"/></g></g></g></svg>