<svg xmlns="http://www.w3.org/2000/svg" viewBox="0 0 510.13 566.84"><defs><style>.cls-1{fill:#00a0e9;opacity:0.2;}</style></defs><g id="レイヤー_2" data-name="レイヤー 2"><g id="contents"><path class="cls-1" d="M454,264.47c22.29-17.05,73.84-29.93,50-65.12-8-11.77-25.77-11-25.84-25.48-.06-14.11,2.94-10,2.1-24.58-1.25-21.65-7.9-48-35.22-45.92-22.67,1.7-49,15.51-45.78,38l1,3.73c6.31,31.71-22.44,35.35-23.5,51.86-1.58,24.79,48.89,37.16,7.11,68.34-44.51,33.22-24.95,35.82-21.92,66.43,1.53,15.43,4.72,32.95-11.91,39.67-15.3,6.18-27.38-.88-33.93,14.13-5.65,13,2.8,30.76-5.31,42.52-8.8,12.77-23.55,14.45-35,21.82-19.53,12.63-3.64,41.76-24.92,51.52-5.18-6.75-10.74-13.88-8.54-20,4.53-12.55,18.76-22.42,20.79-36.41,3.33-23-31.92-15.35-30.48-35.66.64-9.08,7.37-21,14.11-26.56,8.92-7.4,17.17-11,21.44-21.46,8.85-21.68-16.94-37.7-36.29-48.29-9.33-5.1-24.31-11.25-28.37-21.78-3.72-9.65,11.62-24,18.23-29.26,22.24-17.54,42.73-51.59,24.7-79.91-11.94-18.77-38.56-23.7-57.43-34-8.13-4.46-17.41-10.35-15.66-19.33,1.38-7.08,6.91-12.52,10.73-18.46C192.26,97.72,195,79.71,187,68c-23.72-34.88-51.73-27.11-63-31.54s-7.77-13.9-13-21.51C101,.14,84.52-.2,71.57,0,56.86.31,54.42,11.15,48.7,22.41c-6.48,12.77-19.13,9-31.37,17.23C-4,53.94-.77,66.14,2,75.53c3.28,11,10.41,19.45,20.51,26.38,23.41,16,37,17.43,56.62,33.71,16.84,13.95-6.09,24.7-15.26,34.77-11,12-27.64,39.44-28,50.89-1,33.72,21.16,39,41.2,44.45C86.8,268.34,117.46,272,123,277c3.14,2.84,7.09,6.56,6.53,10.58-1,7-4.36,10.58-10.1,13.85-10.84,6.18-25,8.15-35.91,14.09-10.65,5.77-15.32,17.73-18.42,28-3,9.9-3.59,27.94,2.44,37,6.17,9.23,22.48,15.88,33.18,19.69,11.8,4.2,34.67,7.55,42.77,17.67,7.51,9.37-8.9,21.72-17.23,26.67-7.69,4.57-13.1,11.8-9.76,21.65,3.19,9.44,13.95,15,22.86,17.22,18.17,4.55,21.1,4.63,30.85,8.15,12.15,4.4,24.39,10.77,35.43,14.05,11.42,3.4,15.18,6.75,17.46,10.05,4.39,11.89-5.71,47.77,7.59,50.59,7.75,1.65,18.05-.46,26.11-.46,7.66,0,18.85,2.85,21.68-6.33,2.29-7.45-1.4-15.43-1.4-23,0-3.58.23-7.12.38-10.65h0c5.85-16.08,33-10.61,42.91-21.35,20.22-21.87-4.87-42.51,34.32-51.15,20.06-4.42,39.59-.56,39.89-22.32.18-13.62,1.07-28.19,3.95-42.12,7.06-34.1,58.53-19.88,65.37-50.73C470.23,309.47,417.55,292.35,454,264.47ZM209.73,476.21l-.28,0A2.5,2.5,0,0,1,207,474C193,350.62,90.34,58.4,89.3,55.47A2.5,2.5,0,0,1,94,53.8c1,2.94,103.92,295.7,117.91,419.65A2.49,2.49,0,0,1,209.73,476.21ZM444.32,155c-.15,1.28-15.4,129.29-46.33,191.79S294.26,480,293.53,480.73a2,2,0,1,1-2.78-2.87c.73-.71,73-70.95,103.65-132.82s45.79-189.21,45.94-190.49a2,2,0,0,1,4,.47Z"/></g></g></svg>