<svg xmlns="http://www.w3.org/2000/svg" viewBox="0 0 442.69 570.5"><defs><style>.cls-1{opacity:0.2;}.cls-2{fill:#00a0e9;}</style></defs><g id="レイヤー_2" data-name="レイヤー 2"><g id="contents"><g class="cls-1"><path class="cls-2" d="M164.31,356.34c3.93-11.15,51.78-11.66,51.54-70.91-.09-21.45-22.44-39.74-41.73-54.11s-35.39-33.64-29.46-60.45c5.13-23.2,28.12-39.48,40.71-58.45,21.28-32.06.14-62.06-31.66-73.59-13.12-4.76-29.6-6.54-41.38-13.55C100,18,98.74,10.68,92,0c-3.67,6.58,0,0-8.22,12.87s-47.61,39-63.39,61.2c-14.26,20-24.93,41.14-18.49,66.56C9,168.72,30.13,183.46,50.45,201.27c20.58,18,29.34,43.8,6.33,64.65-15.86,14.38-40,16.83-45.15,39.45-5.42,23.85,3.94,40.91,20.85,55.42,15.32,13.15,48.64,28.08,35.3,53.89C57.87,433.83,27,432.61,25.11,457.22c-2.06,26.64,29.57,38.6,50.79,45.52,28.95,9.43,26.54,37.27,27.65,65.34,10.64,2.76,28.22,1.21,41.19.08,10.66-.93.62-34.22,1.13-44,1.64-31.14,32.79-33.08,47.7-52.13,12.94-16.54,33-25,13.58-58.14C195.91,394.71,154,385.45,164.31,356.34Zm-39.31-88c-1.2,12.76-6.45,24.6-11.52,36.06-4,8.93-8,18.17-10,27.54-2.33,11.11-2.73,27.31,3.1,39.49,1.7,3.54,3.49,6.88,5.22,10.12,4.28,8,8.33,15.59,10.8,25.36,4.33,17.19,1,32-2.3,46.26-2.13,9.32-4.32,19-4.32,29.19a3.95,3.95,0,0,1-7.9,0c0-11.12,2.29-21.2,4.51-30.95,3.2-14,6.21-27.22,2.34-42.57-2.22-8.83-6-16-10.1-23.56-1.77-3.32-3.6-6.74-5.37-10.43-6.69-14-6.31-32.16-3.71-44.53,2.13-10.18,6.39-19.81,10.52-29.12,5-11.38,9.79-22.12,10.88-33.61,2-20.89-3.32-38.72-11.87-59.07-2.07-4.93-4.44-10-6.73-14.85C92,179.8,85.3,165.46,83.27,150,80.88,131.66,86,116.21,91,101.26c2.09-6.25,4.25-12.71,5.85-19.34a3.95,3.95,0,1,1,7.68,1.85c-1.68,7-3.89,13.59-6,20-4.93,14.75-9.58,28.68-7.42,45.18C93,163.21,99.44,177,105.69,190.31c2.33,5,4.73,10.07,6.86,15.15C121.56,226.9,127.13,245.8,125,268.34Z"/><path class="cls-2" d="M401.93,406.3c3.11-8.81,41-9.22,40.76-56.08-.07-17-17.74-31.42-33-42.79s-28-26.6-23.31-47.8c4.06-18.35,22.24-31.23,32.2-46.23,16.83-25.35.11-49.08-25-58.2-10.38-3.76-23.42-5.17-32.74-10.71-9.72-5.78-10.74-11.55-16.06-20-2.9,5.2,0,0-6.5,10.18s-37.65,30.86-50.13,48.4c-11.28,15.85-19.72,32.54-14.62,52.64,5.63,22.21,22.3,33.87,38.38,48,16.27,14.26,23.2,34.64,5,51.14-12.54,11.37-31.64,13.31-35.7,31.19-4.29,18.87,3.11,32.36,16.49,43.83,12.11,10.4,38.47,22.21,27.91,42.62-7.83,15.15-32.23,14.18-33.74,33.65-1.63,21.06,23.38,30.53,40.17,36,22.89,7.47,21,25,21.86,47.2,8.41,2.18,22.32,1,32.58.06,8.43-.73.49-22.58.89-30.32,1.3-24.63,25.94-26.16,37.72-41.23,10.24-13.08,26.09-19.8,10.74-46C426.92,436.65,393.8,429.33,401.93,406.3Zm-31.08-69.59c-1,10.09-5.1,19.46-9.12,28.52-3.13,7.07-6.36,14.37-7.91,21.78-1.84,8.78-2.16,21.6,2.45,31.23,1.35,2.8,2.76,5.45,4.13,8,3.39,6.34,6.59,12.32,8.54,20.05,3.42,13.59.76,25.28-1.82,36.58-1.68,7.37-3.42,15-3.42,23.09a3.13,3.13,0,0,1-6.25,0c0-8.8,1.82-16.77,3.58-24.48,2.52-11.07,4.91-21.53,1.85-33.66-1.76-7-4.79-12.65-8-18.64-1.4-2.62-2.85-5.33-4.25-8.25-5.29-11-5-25.43-2.94-35.21,1.69-8.05,5.06-15.67,8.32-23,4-9,7.75-17.5,8.61-26.58,1.56-16.52-2.63-30.63-9.39-46.72-1.64-3.89-3.51-7.88-5.32-11.74-5.15-11-10.47-22.32-12.07-34.56C336,228.62,340,216.4,344,204.57c1.65-4.94,3.36-10,4.62-15.29a3.13,3.13,0,1,1,6.08,1.46c-1.33,5.51-3.08,10.75-4.78,15.82-3.9,11.66-7.58,22.67-5.87,35.72,1.48,11.29,6.59,22.19,11.54,32.72,1.83,3.92,3.73,8,5.42,12C368.13,303.94,372.53,318.89,370.85,336.71Z"/></g></g></g></svg>