<svg xmlns="http://www.w3.org/2000/svg" viewBox="0 0 291.91 337.7"><defs><style>.cls-1{fill:#fff;}</style></defs><g id="レイヤー_2" data-name="レイヤー 2"><g id="レイヤー_1-2" data-name="レイヤー 1"><path class="cls-1" d="M5.53,267l.6-4.3H30.86l-.6,4.3H23.17l-.5,3.73h7.44l-.6,4.31H22.07l-2.2,15.92,6.89-.14-.6,4.3L0,295.65l.6-4.31,7.86-.14L10.68,275H2.83l.6-4.31h7.85l.5-3.73ZM2.39,289.33l1-12.62H8.7l-1,12.62Zm2.33-27.54.93-6.32,14.12-2.58,12.7,1.44-.93,6.31-12.7-1.44Zm16.57,27.54,2.14-12.62h5l-2.14,12.62Zm10.76-23.24,5.37-13.2H48.54l-1.06,2.58H68L62.1,295.94H49.87l5.27-36.16H45.76l-2.59,6.31Zm3.43,21.81-1.62-17.22H44.42L46,287.9Z"/><path class="cls-1" d="M80.56,280.15l3.86-26.4H99.15L95.88,276h6.05l-.6,4.16ZM108,295.94l9-40.61h14.73l-9,40.61Z"/><path class="cls-1" d="M153.57,266.67l.6-4.31h20.91l.38-2.87H152.33l.6-4.3H162l-.28-2.37h13.34l.28,2.37h15.42l1-2.37h13.34l-1,2.37h9.11l-.61,4.3H189.36l-.38,2.87H210l-.6,4.31H188.38l-.49,3.44H211l-.6,4.3H187.29l-.48,3.45h24l-.61,4.3H190l18.29,13.78H192.75l-14-10.55-17.1,10.55H146.06l22.29-13.78H148.2l.6-4.3h24.11l.48-3.45H150.61l.6-4.3H174l.48-3.44Z"/><path class="cls-1" d="M228.09,287l10.55-25.54h-9.79l.6-4.3h11l1.78-4.31h14.45l-1.78,4.31h37l-.61,4.3h-7.92l-9.07,24.1,12.06,1.73-.61,4.3-13.09-1.86-2.31,6.17H255.91l3.06-8.18-15.78-2.23-.65,1.51Zm16.8-5.67,15.71,2.23,8.33-22.1H253.09Z"/><path class="cls-1" d="M69.65,310.54v18.89a1.05,1.05,0,1,1-2.1,0V310.54H61.44a1.05,1.05,0,1,1,0-2.1H75.75a1.05,1.05,0,1,1,0,2.1Z"/><path class="cls-1" d="M81.1,323.83a1.06,1.06,0,0,1,1.17,1,4.85,4.85,0,0,0,5,3.78c3.3,0,5-1.88,5.37-3.59.41-2.71-1.69-4.07-4.16-4.64l-3-.67c-4.55-1-5.16-3.66-5.16-5.5,0-3.57,3.38-6,6.87-6s6.27,2,6.78,5.18a1.06,1.06,0,0,1-.86,1.24,1,1,0,0,1-1.21-.92c-.35-2.1-2.29-3.4-4.71-3.4s-4.77,1.55-4.77,3.88c0,1.14.42,2.76,3.5,3.46l3,.67c3.5.8,6.39,2.86,5.76,7.06-.51,2.54-2.93,5.31-7.44,5.31a6.9,6.9,0,0,1-7-5.63A1,1,0,0,1,81.1,323.83Z"/><path class="cls-1" d="M115.76,322.94a7.76,7.76,0,0,1-15.51,0V309.36a1,1,0,1,1,2.09,0v13.58a5.67,5.67,0,0,0,11.33,0V309.36a1,1,0,1,1,2.09,0Z"/><path class="cls-1" d="M136.09,328.79a1.06,1.06,0,0,1-.16,1.5,1,1,0,0,1-1.49-.22l-5.86-8.27h-3.72v7.63a1,1,0,1,1-2.09,0V309.52a1.11,1.11,0,0,1,1.08-1.08h7.06c4.45,0,6.07,3.34,6.07,6.71s-1.56,6.52-5.82,6.65Zm-11.23-18.25v9.16h5.89c3.08,0,4.13-2.23,4.13-4.55s-1-4.61-4-4.61Z"/><path class="cls-1" d="M145,329.43a1.05,1.05,0,1,1-2.1,0V309.36a1.05,1.05,0,1,1,2.1,0Z"/><path class="cls-1" d="M153.27,330.35a1.12,1.12,0,0,1-1.08-1.08V309.52a1.12,1.12,0,0,1,1.08-1.08h6.9c3.53,0,5.69,2.1,5.69,5.44,0,2.07-.66,4.07-2.67,4.8,2.23.42,3.85,3.12,3.85,5.53a5.88,5.88,0,0,1-6.14,6.14Zm7.15-12.59c2.29,0,3.34-1.88,3.34-3.88,0-2.19-1.56-3.37-3.81-3.37h-5.63v7.25Zm-6.1,2v8.52h6.55a4,4,0,0,0,4.07-4c0-2-1.65-4.48-4.2-4.48Z"/><path class="cls-1" d="M175.76,329.43a1.05,1.05,0,1,1-2.1,0V309.36a1.05,1.05,0,1,1,2.1,0Z"/><path class="cls-1" d="M179.15,336.36a1,1,0,0,1,1.24-.79,4.39,4.39,0,0,0,.8.06c3.24,0,4.42-2.26,4.42-4.9V309.36a1.05,1.05,0,1,1,2.1,0v21.37c0,3.79-1.75,7-6.52,7a6.55,6.55,0,0,1-1.12-.1A1.07,1.07,0,0,1,179.15,336.36Z"/><path class="cls-1" d="M201.91,320.18v9.25a1,1,0,1,1-2.09,0v-9.25L192.6,309.9a1,1,0,0,1,.25-1.43,1,1,0,0,1,1.47.32l6.55,9.1,6.61-9.1a1,1,0,0,1,1.46-.32,1,1,0,0,1,.26,1.43Z"/><path class="cls-1" d="M220.51,308.19a11.24,11.24,0,1,1-11,11.26A11.05,11.05,0,0,1,220.51,308.19Zm0,20.38a9.14,9.14,0,1,0-8.9-9.12A8.95,8.95,0,0,0,220.51,328.57Z"/><path class="cls-1" d="M243.56,209.81a1.23,1.23,0,0,0-1.66-.51c-11.94,6.65-27.68,10.56-36.72-2.37-.32-.46-.62-.93-.92-1.4a70.35,70.35,0,0,0,17.35-4.45,45.25,45.25,0,0,0,9.92-6.3c4.53-3.88,9.1-8.59,10.49-14.82,1.55-6-3.39-12.62-9.34-13.59-5.68-.73-10.82,3.23-14.42,6.32-.75.67-1.47,1.35-2.17,2,.12-4.34-.62-8.62-3.75-11.94-4.19-3.76-10.8-1.59-14,2-4,4.38-5.27,9.92-5.8,15.46a45.63,45.63,0,0,0,2.89,20.24,37.61,37.61,0,0,1-16.51-4.12c-12.62-6.49-14.38-23.83-8.53-35.59,3.11-6.07,8.42-11,14.48-14.52,6.42-3.65,13.71-5.57,19.89-9.69,17-10,25.52-31.12,19.15-50-.93-3.44-3.28-7-4.4-10.09-1.52-5.45-.61-11.23-3.3-16.58-3.51-5.32-10.88-4.24-16.08-6.37-3.57-1.24-5.34-3.51-7.92-6.4-1.46-1.35-2.69-2.48-4-3.79a32.43,32.43,0,0,1-4.94-6c-.93-1.78-2.62-5.45-3.52-7.41a70.13,70.13,0,0,0-12.28-19.18A2.26,2.26,0,0,0,165.6,10c-.08-.06-.12-.14-.21-.2a48.23,48.23,0,0,0-5.23-3l.51-3.36a2.07,2.07,0,0,0-.15-1.05c1.48.11,3,.22,4.44.37a.53.53,0,0,0,.57-.46.52.52,0,0,0-.45-.59C148.6-.51,131.72-.85,115.3,2.36,100.9,5.22,86.49,11,75.51,21A99.34,99.34,0,0,0,56,49.13C38.3,87.49,50.8,130.54,71.29,165.67a19.09,19.09,0,0,0,20.49,29.76c7.17,9.08,15,17.65,24.21,24.72,2.24,1.61,5.49,3.06,8.39,1.88,6.23-2.61,3.93-10.95-1.61-11.32-5-3.23-12-10-16.9-15.31-1.7-1.84-3.36-3.72-5-5.62a19.53,19.53,0,0,0,2.52-3.51l9.64,3.55a3,3,0,0,0,2.77-.41l10-7.51a2.93,2.93,0,0,0-3.52-4.68l-8.73,6.55-8.14-3a19.51,19.51,0,0,0,.37-3.77,19.09,19.09,0,0,0-27.18-17.33l-.14-.24a22.82,22.82,0,0,0,1.47-10.7c-1.15-10.86-8.19-25.16-18.19-31.42L66,116a2.11,2.11,0,0,0-1.24-4l-3.24,1c.86-2.4,1.63-4.83,2.32-7.32a52.7,52.7,0,0,0,2.09-14.34c-.56-8.28-3-16.22-5.81-24l4.3.86a2,2,0,0,0,.42,0,2.11,2.11,0,0,0,.41-4.17l-3-.61A64.18,64.18,0,0,0,73.5,48.76c3-5.8,5.76-11.6,7.14-18l2,1.79a2.11,2.11,0,0,0,3-.16,2.1,2.1,0,0,0-.16-3l-2.2-2,1.34-.36c12.3-3.48,23-10.55,33.6-17.49l.39,2.72a2.11,2.11,0,0,0,2.08,1.81l.3,0a2.1,2.1,0,0,0,1.78-2.38l-.57-4a110.3,110.3,0,0,1,20.32-1.16,47.13,47.13,0,0,1,13,3.12A2.08,2.08,0,0,0,157.25,12a1.66,1.66,0,0,0,.32,0,2.08,2.08,0,0,0,1.53-.72c1,.49,2,1,3,1.56,3.64,18.05-10.94,35.39-24.75,46.94A109,109,0,0,0,139.48,49c.65-6,1.65-12.3-1.35-17.94a.9.9,0,0,0-1.58.86c1.2,2.34,1.27,5.28,1.13,8.09-.63,8.56-3.31,16.9-6.33,24.91a2.2,2.2,0,0,0,3.4,2.47c12.73-10.14,24.6-22.87,29.35-38.84a32.42,32.42,0,0,0,1.15-12.64c6.27,5.41,10.42,13,13.82,20.47,2.26,5.23,6.75,9.48,10.71,13.18,2.18,2.7,5.46,6.1,9.07,7.25,4.35,2.08,11.2,1.12,14.24,5,2.1,4.75,1.34,10.67,2.84,15.82,1.29,3.83,3.3,6.45,4.34,10.16,7.06,24-7.35,43.26-29.78,51-10,3.73-19.08,10.2-24.27,19.87-7.23,13.91-4.69,34.41,10.16,42.23a44.08,44.08,0,0,0,21.57,5c6.25,11.13,17.44,18.24,32,13a44.83,44.83,0,0,0,13.3-7.6A1.22,1.22,0,0,0,243.56,209.81ZM86.66,163.74A13.28,13.28,0,0,1,99.93,177a13.76,13.76,0,0,1-.12,1.71l-12.14-4.46a2.93,2.93,0,0,0-2,5.5l12.14,4.46a13.27,13.27,0,1,1-11.13-20.48ZM74.27,152.29A189.13,189.13,0,0,1,63,128.52q-.84-2.18-1.62-4.38C68.65,130.51,74.84,142.88,74.27,152.29ZM60.2,91.47a47.5,47.5,0,0,1-1.9,12.73c-.4,1.48-.86,3-1.35,4.44a102.85,102.85,0,0,1-1.53-37.43c.85,2.48,1.65,5,2.35,7.49C58.84,82.9,60,87.13,60.2,91.47Zm13-55.62a62.47,62.47,0,0,1-15.07,23.6,78,78,0,0,1,2.93-8.07A95,95,0,0,1,75.39,28,33.87,33.87,0,0,1,73.19,35.85Zm7.75-13.68C90.18,14,101.74,8.85,113.69,5.76,103.44,12.46,92.85,19.31,80.94,22.17ZM156.51,2.82l-.34,2.23-1.52-.62a44.16,44.16,0,0,0-10-2.56q6-.08,12.07.28A1.92,1.92,0,0,0,156.51,2.82Zm45.05,197.54a40.06,40.06,0,0,1-1.83-26.15c1.14-3.56,3.49-7.33,7.3-7.47,1.57,0,1.95.8,2.57,2.3,1.27,3.87.83,9.1.24,13.23a2.71,2.71,0,0,0,4.79,2.16c4-4.76,9.57-10.8,15.47-12.41,2.46-.73,5,1.46,6,3.29,2.94,7.85-10.43,17.74-16.85,20.66A63.35,63.35,0,0,1,201.56,200.36Z"/><path class="cls-1" d="M221.28,95.47a1.19,1.19,0,0,0-1.65-1.71c-4.59,2.79-10.55,0-14.64-2.64a2.12,2.12,0,1,0-2.14,3.64C208.37,97.55,216,99.92,221.28,95.47Z"/><path class="cls-1" d="M169.54,40.91c-10.47-.08-14.9,11.51-14.73,21.38a11.09,11.09,0,0,1-5-.46,12.34,12.34,0,0,1-1.12-1.65.61.61,0,0,0-1.09.54l.38,1.06c.79,2.73,4.43,3.14,7,3.59a25.74,25.74,0,0,0,.6,3.21c-1.76.12-3.84.23-5.33-.44a12.34,12.34,0,0,1-1.12-1.65.61.61,0,0,0-1.09.54l.38,1.06c.87,3,5.12,3.19,7.67,3.71a1.8,1.8,0,0,0,.79-.08c1.63,2.48,4.46,4.14,6.62,5.94,0,0,5.62,4.26,5.64,4.24A1.19,1.19,0,0,0,170.55,80c-3.76-2.81-7.91-5.77-11-9.25-2.46-5.71.18-12.17,2.74-17.42,2.39-6,7.45-7.75,13.52-7a1.56,1.56,0,0,0,1.51-.51C179.24,43,171.68,40.8,169.54,40.91Z"/><path class="cls-1" d="M171.42,48.63c-1,.61,2.61,6.48,3,7.19s10.71,16.38,13.6,20.79a3.1,3.1,0,0,0,3.52,1,1.92,1.92,0,0,0,.68-.3c1.41-1.6-2.85-8.61-6.92-16.95S172.42,48,171.42,48.63Z"/><path class="cls-1" d="M157.74,129.29a42.37,42.37,0,0,1-16-15.55c-8-13.25-10.92-29.08-12.36-44.42a165.09,165.09,0,0,1-.47-23.53,1.19,1.19,0,0,0-2.37-.24c-2.26,23.85-1.08,49.38,11.32,70.58a47.2,47.2,0,0,0,12.18,13.49c-14,.39-26.9-4.58-35.47-16.77A59.1,59.1,0,0,1,107,98.58a.79.79,0,0,0-1.49.5,60.66,60.66,0,0,0,6.9,15.25c7.65,12.29,21.71,19.77,36.12,19.93,3.21,0,6.42.19,9.46-1.26a1.92,1.92,0,0,0,1.13-1.3A2,2,0,0,0,157.74,129.29Z"/></g></g></svg>