<svg xmlns="http://www.w3.org/2000/svg" viewBox="0 0 570 509.14"><defs><style>.cls-1{opacity:0.2;}.cls-2{fill:#00a0e9;}</style></defs><g id="レイヤー_2" data-name="レイヤー 2"><g id="contents"><g class="cls-1"><polygon class="cls-2" points="494.42 135.53 427.93 216.85 351.87 250.18 347.57 318.96 450.39 263.94 533.82 264.64 536.91 226.26 486.11 218.45 523.92 156.43 494.42 135.53"/><polygon class="cls-2" points="211.51 301 195.44 227.71 221.62 149.88 191.03 136.09 165.2 180.95 137.95 147.16 158.24 62.93 124.36 51.86 95.2 121.75 14.09 95.78 0 132.56 93.57 174.57 116.7 203.25 44.01 206.93 44.01 246.06 147.63 251.31 163.02 321.52 217.61 416.58 231.26 325.34 211.51 301"/><polygon class="cls-2" points="555.43 427.57 570 390.05 516.83 366.05 558.33 334.85 536.52 301.63 458.21 346.2 318.18 374.27 328.77 204.94 439.61 135.61 505.56 17.8 478.72 0 422 72.99 374.01 0.95 345.63 16.84 387.4 107.22 316.67 151.46 273.07 37.85 240.74 48.16 277.46 191.33 229.94 509.14 309.75 509.14 314.03 440.67 463.37 397.39 555.43 427.57"/></g></g></g></svg>